<?xml version="1.0" standalone="no"?>
<!DOCTYPE svg PUBLIC "-//W3C//DTD SVG 20010904//EN"
 "http://www.w3.org/TR/2001/REC-SVG-20010904/DTD/svg10.dtd">
<svg version="1.0" xmlns="http://www.w3.org/2000/svg"
 width="400.000000pt" height="400.000000pt" viewBox="0 0 400.000000 400.000000"
 preserveAspectRatio="xMidYMid meet">

<g transform="translate(0.000000,400.000000) scale(0.100000,-0.100000)"
fill="#000000" stroke="none">
<path d="M0 2000 l0 -2000 2000 0 2000 0 0 2000 0 2000 -2000 0 -2000 0 0
-2000z m2125 1819 c780 -67 1387 -606 1557 -1379 20 -93 23 -131 23 -340 -1
-206 -3 -248 -23 -340 -61 -280 -183 -535 -359 -753 -58 -70 -60 -72 -80 -59
-9 6 2 25 38 68 128 150 256 381 317 574 81 255 100 514 56 790 -87 555 -482
1054 -1007 1274 -230 97 -398 130 -657 129 -301 0 -483 -43 -755 -178 -182
-91 -294 -172 -440 -319 -319 -323 -488 -733 -487 -1186 0 -461 174 -874 504
-1201 79 -78 95 -99 84 -108 -27 -23 -222 182 -339 357 -148 222 -245 484
-278 756 -15 124 -7 391 16 506 70 364 235 671 497 926 289 282 651 447 1057
484 126 11 145 11 276 -1z m-190 -909 c0 -16 -6 -26 -18 -28 -19 -4 -32 20
-23 44 9 25 41 13 41 -16z m103 6 c5 -24 -10 -38 -31 -30 -17 6 -23 35 -10 48
12 12 38 1 41 -18z m107 -6 c0 -16 -6 -26 -18 -28 -19 -4 -32 20 -23 44 9 25
41 13 41 -16z m-677 -1890 c-16 -26 -30 -30 -45 -15 -10 10 -9 14 3 19 9 3 12
1 9 -4 -3 -6 -1 -10 5 -10 6 0 13 7 16 15 4 8 10 15 15 15 5 0 4 -9 -3 -20z
m-11 -65 c-4 -8 -12 -15 -19 -14 -10 0 -10 2 0 6 6 2 12 12 12 21 0 8 3 13 6
9 4 -3 4 -13 1 -22z m-117 -169 c0 -3 -4 -8 -10 -11 -5 -3 -10 -1 -10 4 0 6 5
11 10 11 6 0 10 -2 10 -4z m15 -46 c-3 -5 -12 -10 -18 -10 -7 0 -6 4 3 10 19
12 23 12 15 0z m-52 -35 c-3 -9 -8 -14 -10 -11 -3 3 -2 9 2 15 9 16 15 13 8
-4z m1172 -165 c0 -19 -6 -26 -25 -28 -21 -2 -29 -13 -43 -51 -9 -26 -30 -66
-47 -89 -37 -52 -106 -100 -122 -84 -7 7 -2 15 18 25 40 21 88 74 113 124 12
23 21 44 21 47 0 3 -44 7 -97 8 -66 2 -98 7 -101 16 -3 9 23 12 107 12 101 0
111 2 111 18 0 26 10 33 40 30 19 -2 25 -9 25 -28z m-695 -135 l0 -105 -111 0
c-84 0 -110 3 -106 13 3 11 30 14 165 16 l32 1 0 75 0 75 -100 0 c-82 0 -100
3 -100 15 0 12 19 15 110 15 l110 0 0 -105z m340 10 c0 -12 -20 -15 -120 -15
-100 0 -120 3 -120 15 0 13 20 15 120 15 100 0 120 -2 120 -15z m-197 -32
c-18 -2 -48 -2 -65 0 -18 2 -4 4 32 4 36 0 50 -2 33 -4z"/>
<path d="M2430 541 c0 -12 6 -21 16 -21 9 0 14 7 12 17 -5 25 -28 28 -28 4z"/>
</g>
</svg>
